PathFileType	4	(X/Y/Z)	/Users/visionmauri/Downloads/Videos/OAW02-top_Sports2D/OAW02-top_Sports2D_m_person00.trc
DataRate	CameraRate	NumFrames	NumMarkers	Units	OrigDataRate	OrigDataStartFrame	OrigNumFrames
30.0	30.0	7	22	m	30.0	0	2158
Frame#	Time	Hip			RHip			RKnee			RAnkle			RBigToe			RSmallToe			RHeel			LHip			LKnee			LAnkle			LBigToe			LSmallToe			LHeel			Neck			Head			Nose			RShoulder			RElbow			RWrist			LShoulder			LElbow			LWrist			
		X1	Y1	Z1	X2	Y2	Z2	X3	Y3	Z3	X4	Y4	Z4	X5	Y5	Z5	X6	Y6	Z6	X7	Y7	Z7	X8	Y8	Z8	X9	Y9	Z9	X10	Y10	Z10	X11	Y11	Z11	X12	Y12	Z12	X13	Y13	Z13	X14	Y14	Z14	X15	Y15	Z15	X16	Y16	Z16	X17	Y17	Z17	X18	Y18	Z18	X19	Y19	Z19	X20	Y20	Z20	X21	Y21	Z21	X22	Y22	Z22
0	0.0	5.265969128306488	0.277068754621353	0.0301	5.25639507889716	0.2460225418185207	0.0301	5.365654011257175	0.21357029891108567	0.129	5.472546494344568	0.17726706782262644	0.023	5.510102349461659	0.16549505492939554	0.2179	5.505481602306601	0.14085951837082972	0.1804	5.504207202638782	0.1787756546649903	-0.0119	5.28564591885509	0.30488564369125437	0.0301	5.382558871791137	0.2653714720331615	0.129	5.49049938786991	0.23343025176389895	0.023	5.521777265971032	0.2177655524182553	0.2179	5.527011401105483	0.23929019753603473	0.1804	5.506592023452992	0.21847017564721427	-0.0119	5.136916482986019	0.3467472268656258	0.0008	5.044133503384233	0.37539851635666294	0.0655	5.153519261757183	0.34886647870767284	0.1076	5.114577948619336	0.2912785505546166	-0.01275	5.175652713286518	0.22568061741751247	0.0702	5.2601289630976105	0.20152096199705305	0.1076	5.151900308050491	0.3897214241285281	-0.01275	5.229273336731454	0.3736274978793632	0.0702	5.310159769258315	0.34102870058375406	0.1076
1	0.03334878689537939	5.267654465153948	0.27641498784024043	0.0301	5.25834868988777	0.24548838100809892	0.0301	5.367354482972163	0.21246557490248924	0.129	5.473023693093108	0.1773213850421914	0.023	5.510507194738035	0.16496844984957898	0.2179	5.505482687305182	0.14126999857688805	0.1804	5.503352713115899	0.1788161568642558	-0.0119	5.286870517613705	0.3041754495611674	0.0301	5.384545555526213	0.264469685721707	0.129	5.490743910943589	0.23274659332132058	0.023	5.52247855818323	0.2169539616567546	0.2179	5.527425649971713	0.2382546673468287	0.1804	5.506477135306584	0.2183491507692018	-0.0119	5.135123299691586	0.346504051110144	0.0008	5.043513407694385	0.37534420204870184	0.0655	5.149497838831991	0.34881390325029404	0.1076	5.1141325616622755	0.2908531261998088	-0.01275	5.176294175663672	0.22589851816895934	0.0702	5.25949401701059	0.20073314926807878	0.1076	5.151660031570867	0.38979180419927445	-0.01275	5.230132165633514	0.37334416268764936	0.0702	5.309710034656889	0.34132619852035945	0.1076
2	0.06669757379075877	5.271400675550885	0.2749732116704643	0.0301	5.262706542059523	0.24430976316135294	0.0301	5.371143092423861	0.2100730067164004	0.129	5.474060649866289	0.1774590711795959	0.023	5.511382583823235	0.1637745952675075	0.2179	5.505444678633131	0.14217037191154788	0.1804	5.501423882160635	0.17890456309418964	-0.0119	5.289593148399526	0.3025940074747353	0.0301	5.38898444106026	0.26247044299157624	0.129	5.491297090295156	0.23123904048433894	0.023	5.5240213625952075	0.21511024725535002	0.2179	5.528335096904656	0.23592638519100906	0.1804	5.506200312396975	0.218083436151113	-0.0119	5.131116564556331	0.34601469907711874	0.0008	5.042089424675603	0.37527288356554	0.0655	5.140448893378244	0.34873269916858185	0.1076	5.113119667732527	0.2899367940101696	-0.01275	5.177734755156945	0.22637531175729705	0.0702	5.258085695806835	0.19906561095785688	0.1076	5.151122452215982	0.38994149553820956	-0.01275	5.232114632383268	0.37266764388635876	0.0702	5.308743893355714	0.34192299852369823	0.1076
3	0.10004636068613816	5.2770816347006555	0.27279855447586443	0.0301	5.269286353221627	0.24254520324275403	0.0301	5.37690377728307	0.206635728603724	0.129	5.475604667674132	0.17767157670788966	0.023	5.512699732577848	0.16197272124644227	0.2179	5.505354898806866	0.14355601836614412	0.1804	5.498468600568243	0.17903728282407744	-0.0119	5.293726471600009	0.3001993796279192	0.0301	5.395671321326587	0.2594694932840705	0.129	5.492092049063976	0.22898531083025928	0.023	5.526320621753844	0.21233464647427505	0.2179	5.529663467949283	0.23239357344375158	0.1804	5.505703271454677	0.21769771730210796	-0.0119	5.125079726636025	0.34520878683219747	0.0008	5.040023815833879	0.3750785724107	0.0655	5.126710026948192	0.34849775429070373	0.1076	5.11158894972495	0.2884952441162396	-0.01275	5.179880060166905	0.22703393430174348	0.0702	5.255955148227433	0.19656263754025363	0.1076	5.150355143374905	0.390104541535479	-0.01275	5.235143607374387	0.3716245563738943	0.0702	5.307253150945478	0.3428364689016727	0.1076
4	0.13339514758151755	5.2828934960431155	0.2705672792222839	0.0301	5.275873325389787	0.2407789283431575	0.0301	5.382811995998315	0.2034736018113552	0.129	5.477182483857833	0.1778394783937842	0.023	5.514102984408621	0.16024206294023402	0.2179	5.505311876882124	0.14507997176348014	0.1804	5.495459355424867	0.1791739070928347	-0.0119	5.297964596678879	0.2977713302359339	0.0301	5.402291226100199	0.25647477110085437	0.129	5.492737025396125	0.2267341798017732	0.023	5.52860677969485	0.20970053000949987	0.2179	5.530905135199795	0.22886705574224042	0.1804	5.505037123359083	0.21734511499005607	-0.0119	5.119108469078856	0.34399715772086253	0.0008	5.038368858761014	0.37442940060733154	0.0655	5.113013046701697	0.34777952444668825	0.1076	5.110127277965282	0.28675044817288287	-0.01275	5.181901781711028	0.22753559788565222	0.0702	5.253781078270549	0.193774279803776	0.1076	5.149732685876638	0.3900972282873308	-0.01275	5.238042252967577	0.37067650274245884	0.0702	5.305525099511179	0.34403721005467	0.1076
5	0.16674393447689695	5.286897698076914	0.2689538920744653	0.0301	5.280180910646005	0.23954839146646567	0.0301	5.386962795704966	0.20162668749189508	0.129	5.478408567853722	0.17780788910034095	0.023	5.5152663919847615	0.15929937316018955	0.2179	5.505571469433556	0.1463035790524963	0.1804	5.493575841823399	0.1792769874975556	-0.0119	5.3008856843551415	0.29613696582001986	0.0301	5.4065024762746114	0.2544514453353271	0.129	5.4929663207680655	0.22516078877501558	0.023	5.530213731676911	0.20831635864543732	0.2179	5.5317116122354895	0.22667513534397501	0.1804	5.504558935161403	0.21712410055810336	-0.0119	5.115329560762847	0.3424784025409405	0.0008	5.037945636366241	0.3732472714602552	0.0655	5.104592167282833	0.3466070943786103	0.1076	5.109365195907755	0.2851089628951973	-0.01275	5.183044104126332	0.22775905241320557	0.0702	5.252272541187593	0.19113159097556706	0.1076	5.149484106438514	0.38996258719711563	-0.01275	5.239404722689436	0.37041933259135784	0.0702	5.303936896717978	0.34551340837232425	0.1076
6	0.20009272137227632	5.288365530764615	0.26820133361545234	0.0301	5.2815965135879	0.238911636672242	0.0301	5.388813752835002	0.2011021079878678	0.129	5.479211068090297	0.17763700487657827	0.023	5.516038563383262	0.15926353314505656	0.2179	5.506282373747858	0.14686599019693258	0.1804	5.493326018345645	0.1792909686878164	-0.0119	5.301935375418611	0.29556469515604716	0.0301	5.407851295331836	0.25360387286997843	0.129	5.493076672359645	0.22437598373726733	0.023	5.531073617826245	0.20827197540209047	0.2179	5.532247225300697	0.2261748064392758	0.1804	5.504884340452237	0.21699676364675383	-0.0119	5.114270921193652	0.34136297971788243	0.0008	5.03792704544013	0.3724149916417925	0.0655	5.103094331029305	0.3460412227540493	0.1076	5.109470773698905	0.2843004838002133	-0.01275	5.18348930597244	0.22805358246638002	0.0702	5.25185372642156	0.1889721462890198	0.1076	5.149355252428021	0.39015020936805556	-0.01275	5.238939863083679	0.3709732067481733	0.0702	5.30324067646987	0.3468490764536852	0.1076
